<?xml version="1.0" encoding="UTF-8" standalone="no"?>
<!DOCTYPE svg PUBLIC "-//W3C//DTD SVG 1.1//EN"
 "http://www.w3.org/Graphics/SVG/1.1/DTD/svg11.dtd">
<!-- Generated by graphviz version 2.38.0 (20140413.2041)
 -->
<!-- Title: static_call_graph Pages: 1 -->
<svg width="835pt" height="305pt"
 viewBox="0.00 0.00 834.99 305.00" xmlns="http://www.w3.org/2000/svg" xmlns:xlink="http://www.w3.org/1999/xlink">
<g id="graph0" class="graph" transform="scale(1 1) rotate(0) translate(4 301)">
<title>static_call_graph</title>
<polygon fill="white" stroke="none" points="-4,4 -4,-301 830.987,-301 830.987,4 -4,4"/>
<!-- print_path(NODE *,int) -->
<g id="node1" class="node"><title>print_path(NODE *,int)</title>
<ellipse fill="none" stroke="black" cx="392.196" cy="-105" rx="95.5831" ry="18"/>
<text text-anchor="middle" x="392.196" y="-101.3" font-family="Times,serif" font-size="14.00">print_path(NODE *,int)</text>
</g>
<!-- print_path(NODE *,int)&#45;&gt;print_path(NODE *,int) -->
<g id="edge1" class="edge"><title>print_path(NODE *,int)&#45;&gt;print_path(NODE *,int)</title>
<path fill="none" stroke="black" d="M479.312,-112.413C494.87,-111.45 505.738,-108.979 505.738,-105 505.738,-101.954 499.367,-99.7916 489.399,-98.5128"/>
<polygon fill="black" stroke="black" points="489.59,-95.0158 479.312,-97.5869 488.95,-101.986 489.59,-95.0158"/>
<text text-anchor="middle" x="509.238" y="-101.3" font-family="Times,serif" font-size="14.00">1</text>
</g>
<!-- &lt;printf&gt; -->
<g id="node2" class="node"><title>&lt;printf&gt;</title>
<ellipse fill="none" stroke="black" cx="344.196" cy="-18" rx="40.8928" ry="18"/>
<text text-anchor="middle" x="344.196" y="-14.3" font-family="Times,serif" font-size="14.00">&lt;printf&gt;</text>
</g>
<!-- print_path(NODE *,int)&#45;&gt;&lt;printf&gt; -->
<g id="edge2" class="edge"><title>print_path(NODE *,int)&#45;&gt;&lt;printf&gt;</title>
<path fill="none" stroke="black" d="M382.483,-86.799C375.627,-74.6593 366.327,-58.1897 358.609,-44.5231"/>
<polygon fill="black" stroke="black" points="361.533,-42.5835 353.568,-35.597 355.438,-46.0255 361.533,-42.5835"/>
<text text-anchor="middle" x="374.696" y="-57.8" font-family="Times,serif" font-size="14.00">1</text>
</g>
<!-- &lt;fflush&gt; -->
<g id="node3" class="node"><title>&lt;fflush&gt;</title>
<ellipse fill="none" stroke="black" cx="445.196" cy="-18" rx="42.4939" ry="18"/>
<text text-anchor="middle" x="445.196" y="-14.3" font-family="Times,serif" font-size="14.00">&lt;fflush&gt;</text>
</g>
<!-- print_path(NODE *,int)&#45;&gt;&lt;fflush&gt; -->
<g id="edge3" class="edge"><title>print_path(NODE *,int)&#45;&gt;&lt;fflush&gt;</title>
<path fill="none" stroke="black" d="M402.921,-86.799C410.564,-74.5426 420.958,-57.8726 429.527,-44.1296"/>
<polygon fill="black" stroke="black" points="432.526,-45.9344 434.847,-35.597 426.586,-42.2307 432.526,-45.9344"/>
<text text-anchor="middle" x="425.696" y="-57.8" font-family="Times,serif" font-size="14.00">1</text>
</g>
<!-- enqueue(int,int,int) -->
<g id="node4" class="node"><title>enqueue(int,int,int)</title>
<ellipse fill="none" stroke="black" cx="153.196" cy="-105" rx="78.7863" ry="18"/>
<text text-anchor="middle" x="153.196" y="-101.3" font-family="Times,serif" font-size="14.00">enqueue(int,int,int)</text>
</g>
<!-- &lt;malloc&gt; -->
<g id="node5" class="node"><title>&lt;malloc&gt;</title>
<ellipse fill="none" stroke="black" cx="152.196" cy="-18" rx="46.2923" ry="18"/>
<text text-anchor="middle" x="152.196" y="-14.3" font-family="Times,serif" font-size="14.00">&lt;malloc&gt;</text>
</g>
<!-- enqueue(int,int,int)&#45;&gt;&lt;malloc&gt; -->
<g id="edge4" class="edge"><title>enqueue(int,int,int)&#45;&gt;&lt;malloc&gt;</title>
<path fill="none" stroke="black" d="M152.994,-86.799C152.857,-75.1626 152.673,-59.5479 152.517,-46.2368"/>
<polygon fill="black" stroke="black" points="156.016,-46.1335 152.398,-36.1754 149.016,-46.216 156.016,-46.1335"/>
<text text-anchor="middle" x="156.696" y="-57.8" font-family="Times,serif" font-size="14.00">1</text>
</g>
<!-- &lt;fprintf&gt; -->
<g id="node6" class="node"><title>&lt;fprintf&gt;</title>
<ellipse fill="none" stroke="black" cx="44.1961" cy="-18" rx="44.393" ry="18"/>
<text text-anchor="middle" x="44.1961" y="-14.3" font-family="Times,serif" font-size="14.00">&lt;fprintf&gt;</text>
</g>
<!-- enqueue(int,int,int)&#45;&gt;&lt;fprintf&gt; -->
<g id="edge5" class="edge"><title>enqueue(int,int,int)&#45;&gt;&lt;fprintf&gt;</title>
<path fill="none" stroke="black" d="M132.18,-87.6111C114.935,-74.1636 90.3887,-55.0218 71.6024,-40.3719"/>
<polygon fill="black" stroke="black" points="73.7211,-37.5857 63.6831,-34.1963 69.4165,-43.1058 73.7211,-37.5857"/>
<text text-anchor="middle" x="109.696" y="-57.8" font-family="Times,serif" font-size="14.00">1</text>
</g>
<!-- &lt;exit&gt; -->
<g id="node7" class="node"><title>&lt;exit&gt;</title>
<ellipse fill="none" stroke="black" cx="251.196" cy="-18" rx="34.394" ry="18"/>
<text text-anchor="middle" x="251.196" y="-14.3" font-family="Times,serif" font-size="14.00">&lt;exit&gt;</text>
</g>
<!-- enqueue(int,int,int)&#45;&gt;&lt;exit&gt; -->
<g id="edge6" class="edge"><title>enqueue(int,int,int)&#45;&gt;&lt;exit&gt;</title>
<path fill="none" stroke="black" d="M172.558,-87.2067C187.994,-73.8185 209.715,-54.9786 226.419,-40.4907"/>
<polygon fill="black" stroke="black" points="228.905,-42.9673 234.166,-33.771 224.318,-37.6792 228.905,-42.9673"/>
<text text-anchor="middle" x="211.696" y="-57.8" font-family="Times,serif" font-size="14.00">1</text>
</g>
<!-- dequeue(int *,int *,int *) -->
<g id="node8" class="node"><title>dequeue(int *,int *,int *)</title>
<ellipse fill="none" stroke="black" cx="728.196" cy="-105" rx="98.5829" ry="18"/>
<text text-anchor="middle" x="728.196" y="-101.3" font-family="Times,serif" font-size="14.00">dequeue(int *,int *,int *)</text>
</g>
<!-- &lt;free&gt; -->
<g id="node9" class="node"><title>&lt;free&gt;</title>
<ellipse fill="none" stroke="black" cx="728.196" cy="-18" rx="35.194" ry="18"/>
<text text-anchor="middle" x="728.196" y="-14.3" font-family="Times,serif" font-size="14.00">&lt;free&gt;</text>
</g>
<!-- dequeue(int *,int *,int *)&#45;&gt;&lt;free&gt; -->
<g id="edge7" class="edge"><title>dequeue(int *,int *,int *)&#45;&gt;&lt;free&gt;</title>
<path fill="none" stroke="black" d="M728.196,-86.799C728.196,-75.1626 728.196,-59.5479 728.196,-46.2368"/>
<polygon fill="black" stroke="black" points="731.696,-46.1754 728.196,-36.1754 724.696,-46.1755 731.696,-46.1754"/>
<text text-anchor="middle" x="731.696" y="-57.8" font-family="Times,serif" font-size="14.00">1</text>
</g>
<!-- dijkstra(int,int) -->
<g id="node10" class="node"><title>dijkstra(int,int)</title>
<ellipse fill="none" stroke="black" cx="309.196" cy="-192" rx="63.8893" ry="18"/>
<text text-anchor="middle" x="309.196" y="-188.3" font-family="Times,serif" font-size="14.00">dijkstra(int,int)</text>
</g>
<!-- dijkstra(int,int)&#45;&gt;print_path(NODE *,int) -->
<g id="edge12" class="edge"><title>dijkstra(int,int)&#45;&gt;print_path(NODE *,int)</title>
<path fill="none" stroke="black" d="M325.594,-174.207C337.872,-161.633 354.844,-144.252 368.583,-130.182"/>
<polygon fill="black" stroke="black" points="371.35,-132.358 375.832,-122.758 366.341,-127.468 371.35,-132.358"/>
<text text-anchor="middle" x="359.696" y="-144.8" font-family="Times,serif" font-size="14.00">1</text>
</g>
<!-- dijkstra(int,int)&#45;&gt;&lt;printf&gt; -->
<g id="edge8" class="edge"><title>dijkstra(int,int)&#45;&gt;&lt;printf&gt;</title>
<path fill="none" stroke="black" d="M297.82,-174.072C285.289,-153.189 268.38,-116.795 280.196,-87 287.49,-68.6073 302.376,-52.2965 315.957,-40.2628"/>
<polygon fill="black" stroke="black" points="318.357,-42.8168 323.735,-33.6884 313.838,-37.4707 318.357,-42.8168"/>
<text text-anchor="middle" x="283.696" y="-101.3" font-family="Times,serif" font-size="14.00">4</text>
</g>
<!-- dijkstra(int,int)&#45;&gt;enqueue(int,int,int) -->
<g id="edge9" class="edge"><title>dijkstra(int,int)&#45;&gt;enqueue(int,int,int)</title>
<path fill="none" stroke="black" d="M281.306,-175.804C256.189,-162.118 219.049,-141.882 191.217,-126.716"/>
<polygon fill="black" stroke="black" points="192.621,-123.496 182.166,-121.785 189.272,-129.643 192.621,-123.496"/>
<text text-anchor="middle" x="244.696" y="-144.8" font-family="Times,serif" font-size="14.00">2</text>
</g>
<!-- dijkstra(int,int)&#45;&gt;dequeue(int *,int *,int *) -->
<g id="edge11" class="edge"><title>dijkstra(int,int)&#45;&gt;dequeue(int *,int *,int *)</title>
<path fill="none" stroke="black" d="M355.994,-179.645C364.372,-177.699 373.032,-175.745 381.196,-174 422.794,-165.111 433.442,-164.124 475.196,-156 535.557,-144.256 603.972,-130.722 654.426,-120.699"/>
<polygon fill="black" stroke="black" points="655.143,-124.125 664.269,-118.742 653.779,-117.259 655.143,-124.125"/>
<text text-anchor="middle" x="554.696" y="-144.8" font-family="Times,serif" font-size="14.00">1</text>
</g>
<!-- qcount() -->
<g id="node11" class="node"><title>qcount()</title>
<ellipse fill="none" stroke="black" cx="571.196" cy="-105" rx="40.0939" ry="18"/>
<text text-anchor="middle" x="571.196" y="-101.3" font-family="Times,serif" font-size="14.00">qcount()</text>
</g>
<!-- dijkstra(int,int)&#45;&gt;qcount() -->
<g id="edge10" class="edge"><title>dijkstra(int,int)&#45;&gt;qcount()</title>
<path fill="none" stroke="black" d="M350.526,-178.141C393.513,-164.687 462.717,-142.809 522.196,-123 524.959,-122.08 527.806,-121.121 530.672,-120.147"/>
<polygon fill="black" stroke="black" points="532.066,-123.37 540.392,-116.818 529.798,-116.747 532.066,-123.37"/>
<text text-anchor="middle" x="467.696" y="-144.8" font-family="Times,serif" font-size="14.00">1</text>
</g>
<!-- main(int,char * []) -->
<g id="node12" class="node"><title>main(int,char * [])</title>
<ellipse fill="none" stroke="black" cx="393.196" cy="-279" rx="76.8869" ry="18"/>
<text text-anchor="middle" x="393.196" y="-275.3" font-family="Times,serif" font-size="14.00">main(int,char * [])</text>
</g>
<!-- main(int,char * [])&#45;&gt;&lt;fprintf&gt; -->
<g id="edge13" class="edge"><title>main(int,char * [])&#45;&gt;&lt;fprintf&gt;</title>
<path fill="none" stroke="black" d="M334.202,-267.338C259.195,-250.509 131.492,-210.262 65.1961,-123 48.5336,-101.068 44.1717,-69.2745 43.4255,-46.6226"/>
<polygon fill="black" stroke="black" points="46.9221,-46.2808 43.3116,-36.3202 39.9225,-46.3583 46.9221,-46.2808"/>
<text text-anchor="middle" x="96.6961" y="-144.8" font-family="Times,serif" font-size="14.00">2</text>
</g>
<!-- main(int,char * [])&#45;&gt;dijkstra(int,int) -->
<g id="edge16" class="edge"><title>main(int,char * [])&#45;&gt;dijkstra(int,int)</title>
<path fill="none" stroke="black" d="M376.6,-261.207C364.094,-248.552 346.775,-231.026 332.824,-216.909"/>
<polygon fill="black" stroke="black" points="334.99,-214.122 325.471,-209.469 330.011,-219.042 334.99,-214.122"/>
<text text-anchor="middle" x="360.696" y="-231.8" font-family="Times,serif" font-size="14.00">1</text>
</g>
<!-- &lt;fopen&gt; -->
<g id="node13" class="node"><title>&lt;fopen&gt;</title>
<ellipse fill="none" stroke="black" cx="432.196" cy="-192" rx="41.6928" ry="18"/>
<text text-anchor="middle" x="432.196" y="-188.3" font-family="Times,serif" font-size="14.00">&lt;fopen&gt;</text>
</g>
<!-- main(int,char * [])&#45;&gt;&lt;fopen&gt; -->
<g id="edge14" class="edge"><title>main(int,char * [])&#45;&gt;&lt;fopen&gt;</title>
<path fill="none" stroke="black" d="M401.088,-260.799C406.569,-248.854 413.973,-232.717 420.183,-219.183"/>
<polygon fill="black" stroke="black" points="423.46,-220.434 424.449,-209.885 417.097,-217.515 423.46,-220.434"/>
<text text-anchor="middle" x="418.696" y="-231.8" font-family="Times,serif" font-size="14.00">1</text>
</g>
<!-- &lt;fscanf&gt; -->
<g id="node14" class="node"><title>&lt;fscanf&gt;</title>
<ellipse fill="none" stroke="black" cx="534.196" cy="-192" rx="42.7926" ry="18"/>
<text text-anchor="middle" x="534.196" y="-188.3" font-family="Times,serif" font-size="14.00">&lt;fscanf&gt;</text>
</g>
<!-- main(int,char * [])&#45;&gt;&lt;fscanf&gt; -->
<g id="edge15" class="edge"><title>main(int,char * [])&#45;&gt;&lt;fscanf&gt;</title>
<path fill="none" stroke="black" d="M419.717,-262.012C443.021,-247.964 476.999,-227.48 501.885,-212.478"/>
<polygon fill="black" stroke="black" points="503.849,-215.381 510.606,-207.221 500.235,-209.386 503.849,-215.381"/>
<text text-anchor="middle" x="475.696" y="-231.8" font-family="Times,serif" font-size="14.00">1</text>
</g>
</g>
</svg>
